<?xml version="1.0" encoding="utf-8"?>
<!-- Generator: Adobe Illustrator 21.1.0, SVG Export Plug-In . SVG Version: 6.00 Build 0)  -->
<svg version="1.1" id="Layer_1" xmlns="http://www.w3.org/2000/svg" xmlns:xlink="http://www.w3.org/1999/xlink" x="0px" y="0px"
	 viewBox="0 0 255.9 245.3" style="enable-background:new 0 0 255.9 245.3;" xml:space="preserve">
<style type="text/css">
	.st0{fill:none;stroke:#FFFFFF;stroke-width:5;stroke-miterlimit:10;}
	.st1{enable-background:new    ;}
	.st2{fill:#FFFFFF;}
</style>
<title>TheTrailLogoStackedRev</title>
<g id="Layer_5">
	<path class="st0" d="M44.6,149.8C15.1,107,25.9,48.5,68.7,19.1S170,0.5,199.4,43.2c21.6,31.4,22.1,72.7,1.3,104.6"/>
</g>
<g id="Layer_3">
	<polyline class="st0" points="30.3,116.5 66.3,89.2 145.3,119.2 	"/>
	<polyline class="st0" points="79.7,81.8 106,58.8 127,75.2 	"/>
	<polyline class="st0" points="108.3,92.2 157.7,73.2 214.3,114.2 	"/>
</g>
<g id="Layer_4">
	<g class="st1">
		<path class="st2" d="M17.3,207.1h-7.2v-27.9H1v-6h25.6v6h-9.2V207.1z"/>
		<path class="st2" d="M62.4,207.1h-7.2v-14.6H41.8v14.6h-7.2v-33.9h7.2v13.3h13.4v-13.3h7.2V207.1z"/>
		<path class="st2" d="M93.3,207.1H73.8v-33.9h19.5v5.9H81v7.4h11.5v5.9H81v8.7h12.3V207.1z"/>
		<path class="st2" d="M131.5,207.1h-7.2v-27.9h-9.2v-6h25.6v6h-9.2V207.1z"/>
		<path class="st2" d="M156,194.1v13h-7.2v-33.9h9.9c4.6,0,8,0.8,10.2,2.5c2.2,1.7,3.3,4.2,3.3,7.6c0,2-0.5,3.8-1.6,5.3
			c-1.1,1.6-2.7,2.8-4.7,3.7c5.1,7.6,8.4,12.5,10,14.8h-8l-8.1-13H156z M156,188.3h2.3c2.3,0,4-0.4,5-1.1c1.1-0.8,1.6-1.9,1.6-3.6
			c0-1.6-0.6-2.8-1.7-3.4s-2.8-1-5.1-1H156V188.3z"/>
		<path class="st2" d="M203.8,207.1l-2.5-8.1H189l-2.5,8.1h-7.7l12-34h8.8l12,34H203.8z M199.6,193c-2.3-7.3-3.6-11.4-3.8-12.4
			c-0.3-1-0.5-1.7-0.6-2.3c-0.5,2-2,6.9-4.4,14.7H199.6z"/>
		<path class="st2" d="M218.6,207.1v-33.9h7.2v33.9H218.6z"/>
		<path class="st2" d="M237.2,207.1v-33.9h7.2v28h13.8v5.9H237.2z"/>
	</g>
	<g class="st1">
		<path class="st2" d="M34.2,233.6h-6.5l-2.2,5.7h-1.2l6.4-16.1h0.7l6.3,16.1h-1.3L34.2,233.6z M28.1,232.6h5.7l-2.2-5.8
			c-0.2-0.5-0.4-1.1-0.7-1.9c-0.2,0.7-0.4,1.3-0.6,1.9L28.1,232.6z"/>
		<path class="st2" d="M55.3,231.1c0,2.7-0.7,4.7-2.1,6.1s-3.5,2.1-6.2,2.1h-3.8v-16h4.3c2.6,0,4.5,0.7,5.8,2S55.3,228.5,55.3,231.1
			z M54.1,231.1c0-2.3-0.6-4-1.7-5.2s-2.9-1.7-5.1-1.7h-2.9v14h2.7C51.7,238.3,54.1,235.9,54.1,231.1z"/>
		<path class="st2" d="M71.6,223.2h1.2l-6,16h-1l-6-16H61l4,10.9c0.6,1.6,1,2.9,1.2,3.7c0.1-0.5,0.4-1.4,0.9-2.6L71.6,223.2z"/>
		<path class="st2" d="M86.9,239.2h-8.8v-16h8.8v1h-7.6v6.1h7.2v1h-7.2v6.9h7.6V239.2z"/>
		<path class="st2" d="M105.3,239.2h-1.1L94.7,225h-0.1c0.1,1.7,0.1,3,0.1,3.8v10.4h-1.1v-16h1.1l9.5,14.2h0.1
			c-0.1-1.3-0.1-2.6-0.1-3.7v-10.4h1.1V239.2z"/>
		<path class="st2" d="M117.2,239.2h-1.1v-15h-5.2v-1.1h11.5v1.1h-5.2V239.2z"/>
		<path class="st2" d="M139.7,223.2v10.4c0,1.8-0.5,3.3-1.6,4.3c-1.1,1-2.6,1.6-4.5,1.6c-1.9,0-3.3-0.5-4.3-1.6
			c-1-1-1.6-2.5-1.6-4.4v-10.3h1.1v10.4c0,1.5,0.4,2.7,1.3,3.6c0.9,0.9,2.1,1.3,3.6,1.3c1.5,0,2.7-0.4,3.5-1.3
			c0.8-0.8,1.3-2,1.3-3.5v-10.5H139.7z"/>
		<path class="st2" d="M148.3,232.3v7h-1.1v-16h3.8c2,0,3.5,0.4,4.4,1.1c0.9,0.7,1.4,1.8,1.4,3.3c0,1.1-0.3,2-0.8,2.7
			c-0.6,0.7-1.4,1.3-2.6,1.6l4.3,7.3h-1.3l-4.1-7H148.3z M148.3,231.3h3.1c1.4,0,2.4-0.3,3.1-0.9s1.1-1.5,1.1-2.7
			c0-1.2-0.4-2.1-1.1-2.7c-0.7-0.6-1.9-0.8-3.6-0.8h-2.7V231.3z"/>
		<path class="st2" d="M172.4,239.2h-8.8v-16h8.8v1h-7.6v6.1h7.2v1h-7.2v6.9h7.6V239.2z"/>
		<path class="st2" d="M195,224c-2,0-3.6,0.6-4.7,1.9c-1.2,1.3-1.7,3-1.7,5.3c0,2.3,0.5,4.1,1.6,5.3c1.1,1.3,2.6,1.9,4.7,1.9
			c1.3,0,2.6-0.2,3.7-0.5v1c-1.1,0.4-2.4,0.6-4,0.6c-2.2,0-4-0.7-5.3-2.2c-1.3-1.5-1.9-3.5-1.9-6.1c0-1.6,0.3-3.1,0.9-4.3
			c0.6-1.2,1.5-2.2,2.7-2.9c1.2-0.7,2.5-1,4-1c1.6,0,3,0.3,4.2,0.9l-0.4,1C197.5,224.3,196.2,224,195,224z"/>
		<path class="st2" d="M218.7,231.2c0,2.5-0.6,4.6-1.9,6c-1.3,1.5-3,2.2-5.3,2.2c-2.2,0-4-0.7-5.2-2.2s-1.9-3.5-1.9-6.1
			c0-2.5,0.6-4.6,1.9-6s3-2.2,5.3-2.2c2.2,0,4,0.7,5.2,2.2C218,226.7,218.7,228.7,218.7,231.2z M205.6,231.2c0,2.3,0.5,4.1,1.5,5.3
			c1,1.3,2.5,1.9,4.4,1.9c1.9,0,3.4-0.6,4.4-1.9c1-1.2,1.5-3,1.5-5.3c0-2.3-0.5-4.1-1.5-5.3c-1-1.2-2.5-1.8-4.4-1.8
			c-1.9,0-3.4,0.6-4.4,1.9S205.6,228.9,205.6,231.2z"/>
		<path class="st2" d="M225,238.4c0-0.7,0.3-1.1,0.9-1.1c0.6,0,0.9,0.4,0.9,1.1c0,0.7-0.3,1.1-0.9,1.1
			C225.3,239.5,225,239.1,225,238.4z"/>
	</g>
</g>
</svg>
